<svg width="1896" height="698" viewBox="0 0 1896 698" fill="none" xmlns="http://www.w3.org/2000/svg">
<g clip-path="url(#clip0_2466_2122)">
<rect width="1896" height="698" fill="white"/>
<g filter="url(#filter0_d_2466_2122)">
<mask id="mask0_2466_2122" style="mask-type:alpha" maskUnits="userSpaceOnUse" x="-99" y="0" width="1995" height="599">
<path d="M0 0H1896V327.804C1896 400.363 1804.31 432.014 1759.55 374.906V374.906C1727.06 333.452 1663.34 336.566 1635.05 380.991L1551.68 511.887C1505.05 585.1 1414.02 616.382 1332.24 587.298L1152.17 523.259C1102.54 505.608 1077.72 496.782 1052.2 493.564C1033.1 491.156 1013.79 491.083 994.682 493.345C969.136 496.37 944.252 505.007 894.485 522.28L784.825 560.343C750.545 572.241 733.405 578.191 715.766 581.488C702.554 583.958 689.158 585.314 675.719 585.542C657.777 585.845 639.792 583.451 603.823 578.663L427.875 555.24C409.609 552.808 400.476 551.593 391.303 551.089C384.426 550.711 377.536 550.634 370.652 550.856C361.47 551.153 352.313 552.162 333.997 554.181L7.22267 590.204C2.41663 590.734 -2.42633 590.845 -7.25168 590.538L-24.1476 589.46C-108.458 584.083 -127.502 468.42 -49.3663 436.296V436.296C-19.4983 424.016 0 394.918 0 362.624V0Z" fill="url(#paint0_linear_2466_2122)"/>
</mask>
<g mask="url(#mask0_2466_2122)">
<path d="M0 0H1896V327.804C1896 400.363 1804.31 432.014 1759.55 374.906V374.906C1727.06 333.452 1663.34 336.566 1635.05 380.991L1551.68 511.887C1505.05 585.1 1414.02 616.382 1332.24 587.298L1152.17 523.259C1102.54 505.608 1077.72 496.782 1052.2 493.564C1033.1 491.156 1013.79 491.083 994.682 493.345C969.136 496.37 944.252 505.007 894.485 522.28L784.825 560.343C750.545 572.241 733.405 578.191 715.766 581.488C702.554 583.958 689.158 585.314 675.719 585.542C657.777 585.845 639.792 583.451 603.823 578.663L427.875 555.24C409.609 552.808 400.476 551.593 391.303 551.089C384.426 550.711 377.536 550.634 370.652 550.856C361.47 551.153 352.313 552.162 333.997 554.181L7.22267 590.204C2.41663 590.734 -2.42633 590.845 -7.25168 590.538L-24.1476 589.46C-108.458 584.083 -127.502 468.42 -49.3663 436.296V436.296C-19.4983 424.016 0 394.918 0 362.624V0Z" fill="url(#paint1_linear_2466_2122)"/>
<circle cx="573.5" cy="-9" r="49" fill="#9E5BD3"/>
<circle cx="580.5" cy="-9" r="42" fill="#AA90C6"/>
<path d="M1370.45 457.742C1382.44 481.692 1372.75 510.831 1348.8 522.825C1324.85 534.819 1295.71 525.127 1283.72 501.176C1271.72 477.226 1281.42 448.087 1305.37 436.093C1329.32 424.099 1358.46 433.791 1370.45 457.742Z" fill="black"/>
<path d="M1426.8 460.836C1438.79 484.787 1429.1 513.925 1405.15 525.92C1381.2 537.914 1352.06 528.222 1340.07 504.271C1328.07 480.321 1337.77 451.182 1361.72 439.188C1385.67 427.194 1414.81 436.886 1426.8 460.836Z" fill="black"/>
<path d="M1480.02 457.672C1492.01 481.622 1482.32 510.761 1458.37 522.755C1434.42 534.75 1405.28 525.057 1393.28 501.107C1381.29 477.157 1390.98 448.018 1414.93 436.024C1438.88 424.029 1468.02 433.722 1480.02 457.672Z" fill="black"/>
<path d="M1535.03 460.32C1547.02 484.271 1537.33 513.41 1513.38 525.404C1489.43 537.398 1460.29 527.706 1448.29 503.755C1436.3 479.805 1445.99 450.666 1469.94 438.672C1493.89 426.678 1523.03 436.37 1535.03 460.32Z" fill="black"/>
<path d="M1308.59 475.782C1308.43 478.724 1310.69 481.233 1313.64 481.387C1316.58 481.54 1319.09 479.28 1319.24 476.339C1319.39 473.397 1317.13 470.888 1314.19 470.734C1311.25 470.581 1308.74 472.841 1308.59 475.782ZM1494.64 485.503C1494.48 488.444 1496.74 490.953 1499.68 491.107C1502.62 491.261 1505.13 489.001 1505.29 486.059C1505.44 483.118 1503.18 480.609 1500.24 480.455C1497.3 480.301 1494.79 482.561 1494.64 485.503ZM1313.86 477.059L1499.91 486.78L1500.01 484.782L1313.97 475.062L1313.86 477.059Z" fill="white"/>
<path d="M1367.45 457.742C1379.44 481.692 1369.75 510.831 1345.8 522.825C1321.85 534.819 1292.71 525.127 1280.72 501.176C1268.72 477.226 1278.42 448.087 1302.37 436.093C1326.32 424.099 1355.46 433.791 1367.45 457.742Z" fill="#B797FF"/>
<path d="M1423.8 460.836C1435.79 484.787 1426.1 513.925 1402.15 525.92C1378.2 537.914 1349.06 528.222 1337.07 504.271C1325.07 480.321 1334.77 451.182 1358.72 439.188C1382.67 427.194 1411.81 436.886 1423.8 460.836Z" fill="#B797FF"/>
<path d="M1477.02 457.672C1489.01 481.622 1479.32 510.761 1455.37 522.755C1431.42 534.75 1402.28 525.057 1390.28 501.107C1378.29 477.157 1387.98 448.018 1411.93 436.024C1435.88 424.029 1465.02 433.722 1477.02 457.672Z" fill="#B797FF"/>
<path d="M1532.03 460.32C1544.02 484.271 1534.33 513.41 1510.38 525.404C1486.43 537.398 1457.29 527.706 1445.29 503.755C1433.3 479.805 1442.99 450.666 1466.94 438.672C1490.89 426.678 1520.03 436.37 1532.03 460.32Z" fill="#B797FF"/>
<path d="M1305.59 475.782C1305.43 478.724 1307.69 481.233 1310.64 481.387C1313.58 481.54 1316.09 479.28 1316.24 476.339C1316.39 473.397 1314.13 470.888 1311.19 470.734C1308.25 470.581 1305.74 472.841 1305.59 475.782ZM1491.64 485.503C1491.48 488.444 1493.74 490.953 1496.68 491.107C1499.62 491.261 1502.13 489.001 1502.29 486.059C1502.44 483.118 1500.18 480.609 1497.24 480.455C1494.3 480.301 1491.79 482.561 1491.64 485.503ZM1310.86 477.059L1496.91 486.78L1497.01 484.782L1310.97 475.062L1310.86 477.059Z" fill="white"/>
<g filter="url(#filter1_d_2466_2122)">
<path d="M406.875 15.0673C412.207 7.32146 422.809 5.36497 430.555 10.6973C438.3 16.0296 440.257 26.6316 434.925 34.3774C429.592 42.1231 418.99 44.0796 411.245 38.7473C403.499 33.415 401.542 22.813 406.875 15.0673Z" fill="#B797FF"/>
<path d="M398.279 -2.78424C403.611 -10.53 414.213 -12.4865 421.959 -7.15418C429.705 -1.82184 431.661 8.78007 426.329 16.5259C420.997 24.2717 410.395 26.2281 402.649 20.8958C394.903 15.5635 392.947 4.96155 398.279 -2.78424Z" fill="#B797FF"/>
<path d="M388.29 -18.6115C393.622 -26.3573 404.224 -28.3138 411.97 -22.9814C419.716 -17.6491 421.672 -7.04719 416.34 0.698598C411.008 8.44439 400.406 10.4009 392.66 5.06854C384.914 -0.263796 382.958 -10.8657 388.29 -18.6115Z" fill="#B797FF"/>
<path d="M379.785 -35.9747C385.117 -43.7205 395.719 -45.677 403.465 -40.3447C411.21 -35.0123 413.167 -24.4104 407.835 -16.6646C402.502 -8.91885 391.9 -6.96236 384.155 -12.2947C376.409 -17.627 374.452 -28.229 379.785 -35.9747Z" fill="#B797FF"/>
<path d="M422.903 31.0325C423.833 30.5814 424.222 29.4614 423.771 28.5309C423.32 27.6004 422.2 27.2117 421.269 27.6628C420.339 28.1139 419.95 29.2339 420.401 30.1644C420.852 31.095 421.972 31.4836 422.903 31.0325ZM394.371 -27.8215C395.302 -28.2726 395.69 -29.3926 395.239 -30.3231C394.788 -31.2536 393.668 -31.6423 392.738 -31.1912C391.807 -30.7401 391.418 -29.62 391.869 -28.6895C392.321 -27.759 393.441 -27.3704 394.371 -27.8215ZM422.402 29.1945L393.87 -29.6595L393.238 -29.3532L421.77 29.5008L422.402 29.1945Z" fill="white"/>
</g>
<g filter="url(#filter2_d_2466_2122)">
<path d="M-169 78C-169 58.1177 -152.882 42 -133 42H159.175C175.794 42 190.254 53.3771 194.164 69.5303L209.196 131.63C214.002 151.485 201.343 171.356 181.317 175.391L59.9026 199.853C39.1531 204.033 30.1635 228.675 43.3468 245.234V245.234C50.664 254.426 62.8977 258.142 74.0909 254.574L395.125 152.241C404.615 149.217 414.933 150.258 423.627 155.119L440.581 164.598C469.061 180.521 463.365 223.083 431.7 230.956L131.92 305.498C107.153 311.656 104.312 345.723 127.717 355.899V355.899C133.089 358.235 139.081 358.739 144.768 357.334L469.589 277.084C473.814 276.04 478.213 275.914 482.491 276.713V276.713C515.058 282.799 515.869 329.16 483.536 336.383L336.33 369.267C299.324 377.533 305.334 432 343.251 432H354.503C365.823 432 375 441.177 375 452.497V452.497C375 463.008 367.049 471.815 356.593 472.887L194.517 489.501C169.529 492.063 157.5 521.457 173.522 540.802V540.802C190.792 561.651 175.369 593.123 148.31 592.249L-134.162 583.125C-153.582 582.498 -169 566.574 -169 547.144V78Z" fill="url(#paint2_linear_2466_2122)"/>
</g>
<g filter="url(#filter3_d_2466_2122)">
<path d="M173.972 162.549C175.006 155.902 180.73 151 187.457 151H372.357C380.72 151 387.115 158.454 385.845 166.719L349.588 402.605C348.565 409.263 342.836 414.178 336.1 414.178H150.763C142.39 414.178 135.992 406.708 137.279 398.434L173.972 162.549Z" fill="black"/>
<path d="M148.007 171.13C149.123 164.57 154.807 159.771 161.461 159.771H346.3C354.74 159.771 361.156 167.356 359.758 175.679L323.892 389.145C322.788 395.717 317.099 400.531 310.434 400.531H125.163C116.712 400.531 110.293 392.928 111.709 384.597L148.007 171.13Z" fill="#FFCDB4"/>
<path d="M235.631 313.5L235.734 313.011L234.016 312.648L235.285 313.861L235.631 313.5ZM290.131 238L290.353 237.552L288.657 236.709L289.716 238.28L290.131 238ZM339.389 161.072C339.152 160.929 338.845 161.005 338.703 161.242L336.38 165.096C336.237 165.332 336.313 165.64 336.55 165.782C336.786 165.925 337.093 165.849 337.236 165.612L339.301 162.186L342.727 164.251C342.963 164.394 343.27 164.318 343.413 164.081C343.556 163.845 343.479 163.537 343.243 163.395L339.389 161.072ZM199.165 398.499C208.905 397.83 220.081 396.035 230.369 392.754C240.648 389.477 250.09 384.702 256.309 378.041C262.552 371.355 265.529 362.784 262.874 352.027C260.229 341.31 252.005 328.466 235.976 313.139L235.285 313.861C251.257 329.134 259.324 341.819 261.903 352.267C264.472 362.674 261.606 370.903 255.578 377.359C249.526 383.84 240.27 388.548 230.065 391.802C219.868 395.053 208.774 396.837 199.097 397.501L199.165 398.499ZM235.527 313.989C245.807 316.162 257.803 317.607 269.164 317.278C280.513 316.949 291.289 314.847 299.075 309.871C306.901 304.871 311.672 296.987 310.999 285.243C310.329 273.548 304.264 258.048 290.545 237.72L289.716 238.28C303.398 258.552 309.346 273.872 310 285.3C310.653 296.68 306.06 304.221 298.537 309.029C290.973 313.862 280.411 315.951 269.135 316.278C257.871 316.605 245.955 315.171 235.734 313.011L235.527 313.989ZM289.908 238.448C296.408 241.677 304.187 244.273 311.851 244.897C319.516 245.52 327.11 244.173 333.175 239.457C339.245 234.738 343.705 226.707 345.223 214.13C346.739 201.56 345.324 184.41 339.616 161.38L338.646 161.62C344.338 184.59 345.726 201.607 344.23 214.01C342.734 226.407 338.362 234.158 332.561 238.668C326.756 243.182 319.439 244.511 311.932 243.9C304.425 243.289 296.77 240.74 290.353 237.552L289.908 238.448Z" fill="black"/>
<path d="M169.331 314.892L169.416 314.399L169.024 315.287L169.331 314.892ZM237.569 237.956L237.756 237.492L237.184 238.275L237.569 237.956ZM299.155 159.559C298.912 159.429 298.609 159.521 298.479 159.765L296.362 163.736C296.232 163.979 296.324 164.282 296.568 164.412C296.811 164.542 297.114 164.45 297.244 164.206L299.126 160.676L302.656 162.558C302.899 162.688 303.202 162.596 303.332 162.352C303.462 162.109 303.37 161.806 303.126 161.676L299.155 159.559ZM123.659 401.499C135.839 400.818 149.815 398.991 162.678 395.653C175.529 392.318 187.323 387.462 195.092 380.691C198.982 377.3 201.878 373.416 203.379 368.988C204.882 364.554 204.975 359.611 203.312 354.129C199.996 343.194 189.694 330.106 169.638 314.498L169.024 315.287C189.035 330.86 199.131 343.788 202.355 354.42C203.963 359.722 203.862 364.45 202.432 368.666C201.001 372.888 198.227 376.632 194.435 379.937C186.84 386.557 175.224 391.364 162.427 394.685C149.642 398.003 135.733 399.823 123.603 400.501L123.659 401.499ZM169.246 315.385C182.104 317.597 197.107 319.068 211.311 318.733C225.502 318.398 238.951 316.259 248.661 311.209C253.523 308.68 257.467 305.412 260.089 301.257C262.714 297.096 263.992 292.078 263.571 286.092C262.73 274.149 255.124 258.344 237.954 237.636L237.184 238.275C254.32 258.94 261.755 274.542 262.573 286.162C262.981 291.957 261.744 296.76 259.243 300.723C256.739 304.692 252.948 307.852 248.2 310.322C238.691 315.266 225.424 317.399 211.287 317.733C197.162 318.066 182.225 316.603 169.416 314.399L169.246 315.385ZM237.381 238.419C245.505 241.704 255.22 244.342 264.782 244.975C274.34 245.608 283.793 244.24 291.346 239.461C298.919 234.669 304.516 226.489 306.42 213.644C308.322 200.817 306.546 183.328 299.398 159.854L298.442 160.146C305.568 183.548 307.302 200.875 305.431 213.497C303.562 226.101 298.102 234.003 290.812 238.616C283.502 243.241 274.286 244.602 264.848 243.977C255.414 243.352 245.805 240.746 237.756 237.492L237.381 238.419Z" fill="white"/>
</g>
<g filter="url(#filter4_d_2466_2122)">
<g filter="url(#filter5_d_2466_2122)">
<path d="M135.657 124.848C136.718 118.029 142.589 113 149.491 113H339.184C347.763 113 354.325 120.647 353.021 129.127L315.825 371.127C314.775 377.957 308.898 383 301.987 383H111.846C103.256 383 96.6922 375.336 98.0125 366.848L135.657 124.848Z" fill="black"/>
</g>
<path d="M109.018 133.653C110.163 126.923 115.994 122 122.82 122H312.452C321.11 122 327.693 129.781 326.258 138.32L289.462 357.32C288.33 364.062 282.493 369 275.656 369H85.5815C76.9118 369 70.3263 361.2 71.7796 352.653L109.018 133.653Z" fill="#783BFF"/>
<path d="M324.854 150.854C325.049 150.658 325.049 150.342 324.854 150.146L321.672 146.964C321.476 146.769 321.16 146.769 320.964 146.964C320.769 147.16 320.769 147.476 320.964 147.672L323.793 150.5L320.964 153.328C320.769 153.524 320.769 153.84 320.964 154.036C321.16 154.231 321.476 154.231 321.672 154.036L324.854 150.854ZM106.5 151H324.5V150H106.5V151Z" fill="#020202"/>
<circle cx="199" cy="245.5" r="65.5" fill="#9A6CFF"/>
<path d="M185 216L195 241C193 243.5 192.101 244.795 191.5 247.5C190.5 252 198.5 257.5 202.5 253C210.316 244.207 198.5 239.5 196.5 240L186 214L220.5 237.5C214.1 243.5 215.833 258.667 217.5 265.5L197.5 276.5C194.7 266.1 183 261.833 177.5 261L185 216Z" fill="#783BFF"/>
</g>
<g filter="url(#filter6_d_2466_2122)">
<path d="M102.972 89.5487C104.006 82.9019 109.73 78 116.457 78H301.357C309.72 78 316.115 85.4536 314.845 93.7194L278.588 329.605C277.565 336.263 271.836 341.178 265.1 341.178H79.7632C71.3904 341.178 64.9922 333.708 66.2791 325.434L102.972 89.5487Z" fill="black"/>
<path d="M77.0074 98.1302C78.1228 91.5704 83.8066 86.7715 90.4605 86.7715H275.3C283.74 86.7715 290.156 94.3557 288.758 102.679L252.892 316.145C251.788 322.717 246.099 327.531 239.434 327.531H54.1626C45.7119 327.531 39.2928 319.928 40.7094 311.597L77.0074 98.1302Z" fill="#FFCDB4"/>
<path d="M164.631 240.5L164.734 240.011L163.016 239.648L164.285 240.861L164.631 240.5ZM219.131 165L219.353 164.552L217.657 163.709L218.716 165.28L219.131 165ZM268.389 88.0718C268.152 87.9292 267.845 88.0054 267.703 88.2419L265.38 92.0958C265.237 92.3323 265.313 92.6396 265.55 92.7822C265.786 92.9247 266.093 92.8486 266.236 92.6121L268.301 89.1863L271.727 91.2513C271.963 91.3939 272.27 91.3177 272.413 91.0813C272.556 90.8448 272.479 90.5375 272.243 90.3949L268.389 88.0718ZM128.165 325.499C137.905 324.83 149.081 323.035 159.369 319.754C169.648 316.477 179.09 311.702 185.309 305.041C191.552 298.355 194.529 289.784 191.874 279.027C189.229 268.31 181.005 255.466 164.976 240.139L164.285 240.861C180.257 256.134 188.324 268.819 190.903 279.267C193.472 289.674 190.606 297.903 184.578 304.359C178.526 310.84 169.27 315.548 159.065 318.802C148.868 322.053 137.774 323.837 128.097 324.501L128.165 325.499ZM164.527 240.989C174.807 243.162 186.803 244.607 198.164 244.278C209.513 243.949 220.289 241.847 228.075 236.871C235.901 231.871 240.672 223.987 239.999 212.243C239.329 200.548 233.264 185.048 219.545 164.72L218.716 165.28C232.398 185.552 238.346 200.872 239 212.3C239.653 223.68 235.06 231.221 227.537 236.029C219.973 240.862 209.411 242.951 198.135 243.278C186.871 243.605 174.955 242.171 164.734 240.011L164.527 240.989ZM218.908 165.448C225.408 168.677 233.187 171.273 240.851 171.897C248.516 172.52 256.11 171.173 262.175 166.457C268.245 161.738 272.705 153.707 274.223 141.13C275.739 128.56 274.324 111.41 268.616 88.3797L267.646 88.6203C273.338 111.59 274.726 128.607 273.23 141.01C271.734 153.407 267.362 161.158 261.561 165.668C255.756 170.182 248.439 171.511 240.932 170.9C233.425 170.289 225.77 167.74 219.353 164.552L218.908 165.448Z" fill="black"/>
<path d="M98.3312 241.892L98.416 241.399L98.0241 242.287L98.3312 241.892ZM166.569 164.956L166.756 164.492L166.184 165.275L166.569 164.956ZM228.155 86.5588C227.912 86.4289 227.609 86.5211 227.479 86.7648L225.362 90.7357C225.232 90.9793 225.324 91.2822 225.568 91.4121C225.811 91.542 226.114 91.4498 226.244 91.2061L228.126 87.6764L231.656 89.5583C231.899 89.6882 232.202 89.596 232.332 89.3523C232.462 89.1087 232.37 88.8058 232.126 88.6759L228.155 86.5588ZM52.6588 328.499C64.8394 327.818 78.8154 325.991 91.6781 322.653C104.529 319.318 116.323 314.462 124.092 307.691C127.982 304.3 130.878 300.416 132.379 295.988C133.882 291.554 133.975 286.611 132.312 281.129C128.996 270.194 118.694 257.106 98.6383 241.498L98.0241 242.287C118.035 257.86 128.131 270.788 131.355 281.42C132.963 286.722 132.862 291.45 131.432 295.666C130.001 299.888 127.227 303.632 123.435 306.937C115.84 313.557 104.224 318.364 91.4269 321.685C78.6418 325.003 64.7333 326.823 52.603 327.501L52.6588 328.499ZM98.2465 242.385C111.104 244.597 126.107 246.068 140.311 245.733C154.502 245.398 167.951 243.259 177.661 238.209C182.523 235.68 186.467 232.412 189.089 228.257C191.714 224.096 192.992 219.078 192.571 213.092C191.73 201.149 184.124 185.344 166.954 164.636L166.184 165.275C183.32 185.94 190.755 201.542 191.573 213.162C191.981 218.957 190.744 223.76 188.243 227.723C185.739 231.692 181.948 234.852 177.2 237.322C167.691 242.266 154.424 244.399 140.287 244.733C126.162 245.066 111.225 243.603 98.416 241.399L98.2465 242.385ZM166.381 165.419C174.505 168.704 184.22 171.342 193.782 171.975C203.34 172.608 212.793 171.24 220.346 166.461C227.919 161.669 233.516 153.489 235.42 140.644C237.322 127.817 235.546 110.328 228.398 86.8544L227.442 87.1456C234.568 110.548 236.302 127.875 234.431 140.497C232.562 153.101 227.102 161.003 219.812 165.616C212.502 170.241 203.286 171.602 193.848 170.977C184.414 170.352 174.805 167.746 166.756 164.492L166.381 165.419Z" fill="white"/>
</g>
<path d="M1210.33 12.9564C1187.65 -12.0537 1213.8 -50.6811 1245.45 -38.9147L1455 39L1549.46 71.5802C1579.93 82.0878 1601.6 41.796 1576.04 22.1665V22.1665C1556.78 7.37115 1563.75 -23.2084 1587.52 -28.195L1625.46 -36.1531C1628.15 -36.7166 1630.88 -37.0397 1633.62 -37.1188L1727.98 -39.8363C1773.79 -41.1555 1787.91 21.6331 1745.95 40.0505V40.0505C1730.79 46.7034 1721 61.6905 1721 78.244V90.0032C1721 95.3107 1721.71 100.605 1723.11 105.725V105.725C1734.74 148.374 1786.62 164.813 1820.59 136.512L1943.08 34.4355C1966.87 14.6058 2003 31.5268 2003 62.5018V62.5018C2003 69.3618 2001.07 76.0832 1997.43 81.8967L1985.46 101.003C1966.95 130.542 1981.92 169.578 2015.42 179.182V179.182C2054.81 190.472 2066.58 240.574 2036.33 268.219L1977.44 322.046C1958.88 339.015 1934.45 348.109 1909.3 347.41L1327.73 331.244C1315.1 330.892 1310.93 314.144 1321.92 307.903V307.903C1330.55 303.003 1330.29 290.478 1321.46 285.94L1276.76 262.957C1263.49 256.138 1257.43 240.473 1262.65 226.504V226.504C1267.29 214.098 1279.64 206.32 1292.83 207.502L1392.62 216.448C1407.02 217.74 1421.19 212.163 1430.85 201.401V201.401C1450.11 179.938 1445.02 146.236 1420.27 131.42L1382 108.5L1218.79 19.6109C1215.62 17.8826 1212.76 15.6331 1210.33 12.9564V12.9564Z" fill="url(#paint3_linear_2466_2122)"/>
<g filter="url(#filter7_di_2466_2122)">
<rect x="558.17" y="392.459" width="372.266" height="109.853" rx="54.9267" transform="rotate(-47.9722 558.17 392.459)" fill="white"/>
<rect x="466" y="378.527" width="372.266" height="109.853" rx="54.9267" transform="rotate(-47.9722 466 378.527)" fill="white"/>
<rect x="769.17" y="362.459" width="372.266" height="109.853" rx="54.9267" transform="rotate(-47.9722 769.17 362.459)" fill="white"/>
<rect x="677" y="348.527" width="372.266" height="109.853" rx="54.9267" transform="rotate(-47.9722 677 348.527)" fill="white"/>
<rect x="996.17" y="338.459" width="372.266" height="109.853" rx="54.9267" transform="rotate(-47.9722 996.17 338.459)" fill="white"/>
<rect x="904" y="324.527" width="372.266" height="109.853" rx="54.9267" transform="rotate(-47.9722 904 324.527)" fill="white"/>
</g>
<path d="M441.5 63L441.741 103.837L468.176 72.7092L442.111 104.147L482.37 97.2936L442.195 104.623L477.44 125.25L441.953 105.04L455.694 143.497L441.5 105.206L427.306 143.497L441.047 105.04L405.56 125.25L440.805 104.623L400.63 97.2936L440.889 104.147L414.824 72.7092L441.259 103.837L441.5 63Z" fill="black"/>
<g filter="url(#filter8_d_2466_2122)">
<path d="M1107.5 255L1108.22 376.527L1186.88 283.894L1109.32 377.45L1229.12 357.054L1109.57 378.865L1214.45 440.25L1108.85 380.108L1149.74 494.552L1107.5 380.6L1065.26 494.552L1106.15 380.108L1000.55 440.25L1105.43 378.865L985.876 357.054L1105.68 377.45L1028.12 283.894L1106.78 376.527L1107.5 255Z" fill="black"/>
</g>
<g filter="url(#filter9_d_2466_2122)">
<path d="M705.5 92L705.925 123.501L719.126 94.8962L706.701 123.847L730.395 103.084L707.27 124.478L737.36 115.148L707.532 125.286L738.816 129.002L707.443 126.131L734.512 142.25L707.019 126.867L725.191 152.602L706.331 127.367L712.465 158.268L705.5 127.543L698.535 158.268L704.669 127.367L685.809 152.602L703.981 126.867L676.488 142.25L703.557 126.131L672.184 129.002L703.468 125.286L673.64 115.148L703.73 124.478L680.605 103.084L704.299 123.847L691.874 94.8962L705.075 123.501L705.5 92Z" fill="#5500FF"/>
</g>
<g filter="url(#filter10_d_2466_2122)">
<path d="M552.5 393L552.925 424.501L566.126 395.896L553.701 424.847L577.395 404.084L554.27 425.478L584.36 416.148L554.532 426.286L585.816 430.002L554.443 427.131L581.512 443.25L554.019 427.867L572.191 453.602L553.331 428.367L559.465 459.268L552.5 428.543L545.535 459.268L551.669 428.367L532.809 453.602L550.981 427.867L523.488 443.25L550.557 427.131L519.184 430.002L550.468 426.286L520.64 416.148L550.73 425.478L527.605 404.084L551.299 424.847L538.874 395.896L552.075 424.501L552.5 393Z" fill="#95FF00"/>
</g>
<g filter="url(#filter11_d_2466_2122)">
<mask id="path-36-inside-1_2466_2122" fill="white">
<path d="M1816 32C1816 -32.6672 1790.84 -94.7978 1745.85 -141.246C1700.86 -187.694 1639.56 -214.817 1574.92 -216.874C1510.29 -218.931 1447.39 -195.763 1399.53 -152.27C1351.68 -108.777 1322.62 -48.3723 1318.5 16.1639C1314.39 80.7002 1335.55 144.305 1377.5 193.521C1419.44 242.737 1478.89 273.702 1543.27 279.866C1607.64 286.03 1671.88 266.909 1722.41 226.548C1772.94 186.187 1805.78 127.752 1813.99 63.6081L1567 32H1816Z"/>
</mask>
<path d="M1816 32C1816 -32.6672 1790.84 -94.7978 1745.85 -141.246C1700.86 -187.694 1639.56 -214.817 1574.92 -216.874C1510.29 -218.931 1447.39 -195.763 1399.53 -152.27C1351.68 -108.777 1322.62 -48.3723 1318.5 16.1639C1314.39 80.7002 1335.55 144.305 1377.5 193.521C1419.44 242.737 1478.89 273.702 1543.27 279.866C1607.64 286.03 1671.88 266.909 1722.41 226.548C1772.94 186.187 1805.78 127.752 1813.99 63.6081L1567 32H1816Z" stroke="#F50000" stroke-opacity="0.39" stroke-width="300" shape-rendering="crispEdges" mask="url(#path-36-inside-1_2466_2122)"/>
</g>
<g filter="url(#filter12_d_2466_2122)">
<mask id="path-37-inside-2_2466_2122" fill="white">
<path d="M1801 29C1801 -35.6672 1775.84 -97.7978 1730.85 -144.246C1685.86 -190.694 1624.56 -217.817 1559.92 -219.874C1495.29 -221.931 1432.39 -198.763 1384.53 -155.27C1336.68 -111.777 1307.62 -51.3723 1303.5 13.1639C1299.39 77.7002 1320.55 141.305 1362.5 190.521C1404.44 239.737 1463.89 270.702 1528.27 276.866C1592.64 283.03 1656.88 263.909 1707.41 223.548C1757.94 183.187 1790.78 124.752 1798.99 60.6081L1552 29H1801Z"/>
</mask>
<path d="M1801 29C1801 -35.6672 1775.84 -97.7978 1730.85 -144.246C1685.86 -190.694 1624.56 -217.817 1559.92 -219.874C1495.29 -221.931 1432.39 -198.763 1384.53 -155.27C1336.68 -111.777 1307.62 -51.3723 1303.5 13.1639C1299.39 77.7002 1320.55 141.305 1362.5 190.521C1404.44 239.737 1463.89 270.702 1528.27 276.866C1592.64 283.03 1656.88 263.909 1707.41 223.548C1757.94 183.187 1790.78 124.752 1798.99 60.6081L1552 29H1801Z" stroke="#20103B" stroke-width="300" shape-rendering="crispEdges" mask="url(#path-37-inside-2_2466_2122)"/>
</g>
<g filter="url(#filter13_dddddf_2466_2122)">
<path d="M1305 55.8147C1451.51 24.0626 1425.1 117.522 1473.93 155.864C1513 186.537 1630 194.745 1664.29 124.71C1691.87 68.3955 1729.48 44.6712 1723.5 124.71C1716.03 224.759 1690 223.525 1664.29 243.931C1622 277.5 1558.65 255.913 1516.29 243.931C1473.93 231.949 1399.68 198.999 1364.8 133.098C1329.92 67.1978 1313.97 16.2747 1316.46 3.69366C1318.95 -8.88735 1360.31 -44.234 1376.76 -37.0449C1393.2 -29.8557 1422.6 33.6481 1445.03 67.1975C1467.45 100.747 1467.95 132.112 1516.29 140.5C1564.63 148.888 1590.54 144.48 1612.96 124.71C1635.39 104.941 1647.5 84 1630 72C1583 84 1565.92 60.6074 1543.5 55.8147" stroke="white" shape-rendering="crispEdges"/>
</g>
</g>
</g>
<g filter="url(#filter14_d_2466_2122)">
<path d="M559.118 501.882C560.134 498.397 563.328 496 566.959 496H788.135C793.568 496 797.486 501.205 795.983 506.426L755.348 647.589C754.341 651.087 751.141 653.496 747.501 653.496H525.834C520.391 653.496 516.471 648.272 517.994 643.046L559.118 501.882Z" fill="black"/>
<path d="M524.071 506.688C525.15 503.301 528.297 501 531.853 501H752.904C758.42 501 762.35 506.356 760.694 511.618L720.497 639.365C719.427 642.766 716.273 645.08 712.707 645.08H491.171C485.643 645.08 481.712 639.703 483.39 634.436L524.071 506.688Z" fill="#6C1CD5"/>
<path d="M237.892 461.089L238.849 460.383L236.748 461.413L237.892 461.089ZM534.641 516.842L535.691 516.283L533.456 516.935L534.641 516.842ZM817.563 552.562C817.309 551.956 816.612 551.671 816.006 551.926L806.138 556.067C805.532 556.321 805.247 557.018 805.502 557.624C805.756 558.229 806.453 558.514 807.058 558.26L815.83 554.579L819.512 563.351C819.766 563.956 820.463 564.241 821.068 563.987C821.674 563.733 821.959 563.036 821.705 562.43L817.563 552.562ZM-20.8415 479.499C9.76634 510.14 46.6677 543.632 83.4468 571.822C120.199 599.992 156.93 622.947 187.183 632.409C202.309 637.14 215.95 638.541 227.21 635.409C238.543 632.257 247.318 624.551 252.709 611.421C258.077 598.349 260.091 579.911 258.066 555.184C256.038 530.44 249.956 499.301 239.037 460.765L236.748 461.413C247.643 499.863 253.685 530.841 255.695 555.378C257.707 579.932 255.673 597.941 250.509 610.517C245.37 623.036 237.132 630.181 226.573 633.118C215.941 636.075 202.812 634.805 187.893 630.139C158.055 620.807 121.597 598.067 84.8936 569.935C48.2164 541.822 11.3939 508.404 -19.1588 477.818L-20.8415 479.499ZM236.936 461.795C264.242 498.793 297.995 540.193 332.888 576.635C367.764 613.059 403.849 644.605 435.821 661.814C451.806 670.418 466.858 675.492 480.276 675.729C493.751 675.966 505.54 671.321 514.861 660.601C524.14 649.929 530.896 633.328 534.58 609.777C538.267 586.213 538.895 555.585 535.826 516.748L533.456 516.935C536.516 555.667 535.878 586.094 532.23 609.409C528.58 632.739 521.933 648.843 513.066 659.04C504.242 669.189 493.145 673.577 480.318 673.351C467.434 673.123 452.769 668.236 436.949 659.72C405.311 642.69 369.432 611.363 334.606 574.991C299.797 538.637 266.109 497.317 238.849 460.383L236.936 461.795ZM533.591 517.4C547.601 543.735 566.546 573.163 588.522 599.002C610.487 624.828 635.544 647.144 661.798 659.156C688.097 671.189 715.649 672.895 742.384 657.375C769.045 641.899 794.706 609.399 817.567 553.472L815.366 552.572C792.59 608.288 767.193 640.224 741.19 655.318C715.263 670.369 688.546 668.78 662.787 656.994C636.982 645.187 612.191 623.161 590.334 597.461C568.488 571.775 549.636 542.496 535.691 516.283L533.591 517.4Z" fill="black"/>
<path d="M553.618 594.08L553.645 593.782L553.503 594.357L553.618 594.08ZM630.096 548.039L630.159 547.746L629.934 548.29L630.096 548.039ZM698.934 501.098C698.775 501.054 698.611 501.148 698.567 501.308L697.856 503.905C697.812 504.065 697.906 504.229 698.066 504.273C698.225 504.316 698.39 504.223 698.433 504.063L699.065 501.754L701.374 502.386C701.533 502.43 701.698 502.336 701.742 502.177C701.785 502.017 701.691 501.853 701.532 501.809L698.934 501.098ZM502.407 645.91C516.039 645.503 531.676 644.411 546.061 642.418C560.439 640.426 573.595 637.53 582.248 633.503C586.57 631.491 589.81 629.178 591.499 626.518C592.347 625.182 592.805 623.757 592.809 622.243C592.813 620.731 592.363 619.15 591.426 617.501C589.558 614.211 585.735 610.619 579.598 606.691C573.456 602.759 564.967 598.473 553.732 593.804L553.503 594.357C564.72 599.018 573.173 603.289 579.276 607.195C585.384 611.105 589.109 614.633 590.906 617.796C591.802 619.374 592.214 620.853 592.21 622.242C592.207 623.629 591.789 624.945 590.994 626.197C589.397 628.712 586.283 630.965 581.995 632.96C573.428 636.947 560.346 639.834 545.979 641.825C531.62 643.815 516.005 644.905 502.39 645.312L502.407 645.91ZM553.59 594.378C567.982 595.7 584.77 596.579 600.657 596.379C616.538 596.179 631.541 594.9 642.349 591.899C647.751 590.399 652.134 588.461 655.054 585.989C657.987 583.507 659.456 580.474 658.975 576.827C658.498 573.208 656.106 569.038 651.463 564.243C646.814 559.441 639.88 553.983 630.258 547.787L629.934 548.29C639.536 554.473 646.428 559.904 651.033 564.659C655.642 569.419 657.929 573.474 658.382 576.905C658.83 580.309 657.479 583.153 654.668 585.532C651.844 587.923 647.557 589.832 642.189 591.322C631.457 594.302 616.517 595.58 600.65 595.78C584.788 595.98 568.02 595.103 553.645 593.782L553.59 594.378ZM630.032 548.331C639.109 550.291 649.956 551.862 660.621 552.239C671.283 552.616 681.785 551.801 690.163 548.97C698.543 546.139 704.844 541.273 706.996 533.526C709.142 525.796 707.129 515.29 699.115 501.238L698.596 501.535C706.58 515.535 708.501 525.865 706.419 533.365C704.341 540.848 698.25 545.606 689.972 548.403C681.692 551.201 671.271 552.017 660.642 551.641C650.018 551.266 639.207 549.699 630.159 547.746L630.032 548.331Z" fill="white"/>
</g>
<mask id="mask1_2466_2122" style="mask-type:alpha" maskUnits="userSpaceOnUse" x="81" y="465" width="45" height="45">
<circle cx="103.5" cy="487.5" r="22.5" fill="#F08626"/>
</mask>
<g mask="url(#mask1_2466_2122)">
<circle cx="103.5" cy="487.5" r="22.5" fill="#F08626" fill-opacity="0.5"/>
<circle cx="98.5" cy="478.5" r="22.5" fill="#F08626"/>
</g>
<g filter="url(#filter15_d_2466_2122)">
<path d="M1203.19 60.1136C1186.06 145.495 1175.59 115.637 1172.49 90.0351C1171.18 58.4465 1164.92 13.6991 1150.32 87.4191C1135.72 161.139 1130.81 117.567 1130.18 86.5653C1127.86 51.5611 1120.53 1.62476 1109.77 81.9135C1099.02 162.202 1084.48 148.439 1087.77 126.48C1091.06 104.522 1083.48 72.4191 1067.45 94.7685C1038.59 135.009 1040.75 127.694 1032.45 137.046" stroke="white" stroke-width="5"/>
</g>
<g filter="url(#filter16_d_2466_2122)">
<path d="M1966.77 252.726C1920.11 485.331 1891.59 403.988 1883.16 334.241C1879.59 248.184 1862.52 126.278 1822.75 327.114C1782.99 527.95 1769.61 409.245 1767.89 324.788C1761.56 229.426 1741.58 93.3841 1712.28 312.115C1682.99 530.846 1643.38 493.351 1652.35 433.529C1661.31 373.707 1640.67 286.25 1596.99 347.136C1518.35 456.765 1524.25 436.835 1501.64 462.313" stroke="white" stroke-width="13.6215"/>
</g>
</g>
<defs>
<filter id="filter0_d_2466_2122" x="-119.595" y="-16.8" width="2036.39" height="639.68" filterUnits="userSpaceOnUse" color-interpolation-filters="sRGB">
<feFlood flood-opacity="0" result="BackgroundImageFix"/>
<feColorMatrix in="SourceAlpha" type="matrix" values="0 0 0 0 0 0 0 0 0 0 0 0 0 0 0 0 0 0 127 0" result="hardAlpha"/>
<feOffset dy="4"/>
<feGaussianBlur stdDeviation="10.4"/>
<feComposite in2="hardAlpha" operator="out"/>
<feColorMatrix type="matrix" values="0 0 0 0 0 0 0 0 0 0 0 0 0 0 0 0 0 0 0.25 0"/>
<feBlend mode="normal" in2="BackgroundImageFix" result="effect1_dropShadow_2466_2122"/>
<feBlend mode="normal" in="SourceGraphic" in2="effect1_dropShadow_2466_2122" result="shape"/>
</filter>
<filter id="filter1_d_2466_2122" x="372.781" y="-43.3477" width="69.1465" height="93.0977" filterUnits="userSpaceOnUse" color-interpolation-filters="sRGB">
<feFlood flood-opacity="0" result="BackgroundImageFix"/>
<feColorMatrix in="SourceAlpha" type="matrix" values="0 0 0 0 0 0 0 0 0 0 0 0 0 0 0 0 0 0 127 0" result="hardAlpha"/>
<feOffset dy="4"/>
<feGaussianBlur stdDeviation="2"/>
<feComposite in2="hardAlpha" operator="out"/>
<feColorMatrix type="matrix" values="0 0 0 0 0 0 0 0 0 0 0 0 0 0 0 0 0 0 0.25 0"/>
<feBlend mode="normal" in2="BackgroundImageFix" result="effect1_dropShadow_2466_2122"/>
<feBlend mode="normal" in="SourceGraphic" in2="effect1_dropShadow_2466_2122" result="shape"/>
</filter>
<filter id="filter2_d_2466_2122" x="-173" y="40" width="684.355" height="558.268" filterUnits="userSpaceOnUse" color-interpolation-filters="sRGB">
<feFlood flood-opacity="0" result="BackgroundImageFix"/>
<feColorMatrix in="SourceAlpha" type="matrix" values="0 0 0 0 0 0 0 0 0 0 0 0 0 0 0 0 0 0 127 0" result="hardAlpha"/>
<feOffset dy="2"/>
<feGaussianBlur stdDeviation="2"/>
<feComposite in2="hardAlpha" operator="out"/>
<feColorMatrix type="matrix" values="0 0 0 0 0 0 0 0 0 0 0 0 0 0 0 0 0 0 0.25 0"/>
<feBlend mode="normal" in2="BackgroundImageFix" result="effect1_dropShadow_2466_2122"/>
<feBlend mode="normal" in="SourceGraphic" in2="effect1_dropShadow_2466_2122" result="shape"/>
</filter>
<filter id="filter3_d_2466_2122" x="100.714" y="144.2" width="296.092" height="284.778" filterUnits="userSpaceOnUse" color-interpolation-filters="sRGB">
<feFlood flood-opacity="0" result="BackgroundImageFix"/>
<feColorMatrix in="SourceAlpha" type="matrix" values="0 0 0 0 0 0 0 0 0 0 0 0 0 0 0 0 0 0 127 0" result="hardAlpha"/>
<feOffset dy="4"/>
<feGaussianBlur stdDeviation="5.4"/>
<feComposite in2="hardAlpha" operator="out"/>
<feColorMatrix type="matrix" values="0 0 0 0 0.613846 0 0 0 0 0.519211 0 0 0 0 0.519211 0 0 0 0.25 0"/>
<feBlend mode="normal" in2="BackgroundImageFix" result="effect1_dropShadow_2466_2122"/>
<feBlend mode="normal" in="SourceGraphic" in2="effect1_dropShadow_2466_2122" result="shape"/>
</filter>
<filter id="filter4_d_2466_2122" x="60.7781" y="106.2" width="303.209" height="291.6" filterUnits="userSpaceOnUse" color-interpolation-filters="sRGB">
<feFlood flood-opacity="0" result="BackgroundImageFix"/>
<feColorMatrix in="SourceAlpha" type="matrix" values="0 0 0 0 0 0 0 0 0 0 0 0 0 0 0 0 0 0 127 0" result="hardAlpha"/>
<feOffset dy="4"/>
<feGaussianBlur stdDeviation="5.4"/>
<feComposite in2="hardAlpha" operator="out"/>
<feColorMatrix type="matrix" values="0 0 0 0 0.613846 0 0 0 0 0.519211 0 0 0 0 0.519211 0 0 0 0.25 0"/>
<feBlend mode="normal" in2="BackgroundImageFix" result="effect1_dropShadow_2466_2122"/>
<feBlend mode="normal" in="SourceGraphic" in2="effect1_dropShadow_2466_2122" result="shape"/>
</filter>
<filter id="filter5_d_2466_2122" x="93.8438" y="113" width="263.344" height="278" filterUnits="userSpaceOnUse" color-interpolation-filters="sRGB">
<feFlood flood-opacity="0" result="BackgroundImageFix"/>
<feColorMatrix in="SourceAlpha" type="matrix" values="0 0 0 0 0 0 0 0 0 0 0 0 0 0 0 0 0 0 127 0" result="hardAlpha"/>
<feOffset dy="4"/>
<feGaussianBlur stdDeviation="2"/>
<feComposite in2="hardAlpha" operator="out"/>
<feColorMatrix type="matrix" values="0 0 0 0 0 0 0 0 0 0 0 0 0 0 0 0 0 0 0.25 0"/>
<feBlend mode="normal" in2="BackgroundImageFix" result="effect1_dropShadow_2466_2122"/>
<feBlend mode="normal" in="SourceGraphic" in2="effect1_dropShadow_2466_2122" result="shape"/>
</filter>
<filter id="filter6_d_2466_2122" x="29.7137" y="71.2" width="296.092" height="284.778" filterUnits="userSpaceOnUse" color-interpolation-filters="sRGB">
<feFlood flood-opacity="0" result="BackgroundImageFix"/>
<feColorMatrix in="SourceAlpha" type="matrix" values="0 0 0 0 0 0 0 0 0 0 0 0 0 0 0 0 0 0 127 0" result="hardAlpha"/>
<feOffset dy="4"/>
<feGaussianBlur stdDeviation="5.4"/>
<feComposite in2="hardAlpha" operator="out"/>
<feColorMatrix type="matrix" values="0 0 0 0 0.613846 0 0 0 0 0.519211 0 0 0 0 0.519211 0 0 0 0.25 0"/>
<feBlend mode="normal" in2="BackgroundImageFix" result="effect1_dropShadow_2466_2122"/>
<feBlend mode="normal" in="SourceGraphic" in2="effect1_dropShadow_2466_2122" result="shape"/>
</filter>
<filter id="filter7_di_2466_2122" x="484.646" y="70.6465" width="823.707" height="380.713" filterUnits="userSpaceOnUse" color-interpolation-filters="sRGB">
<feFlood flood-opacity="0" result="BackgroundImageFix"/>
<feColorMatrix in="SourceAlpha" type="matrix" values="0 0 0 0 0 0 0 0 0 0 0 0 0 0 0 0 0 0 127 0" result="hardAlpha"/>
<feOffset dy="4"/>
<feGaussianBlur stdDeviation="2"/>
<feComposite in2="hardAlpha" operator="out"/>
<feColorMatrix type="matrix" values="0 0 0 0 0 0 0 0 0 0 0 0 0 0 0 0 0 0 0.25 0"/>
<feBlend mode="normal" in2="BackgroundImageFix" result="effect1_dropShadow_2466_2122"/>
<feBlend mode="normal" in="SourceGraphic" in2="effect1_dropShadow_2466_2122" result="shape"/>
<feColorMatrix in="SourceAlpha" type="matrix" values="0 0 0 0 0 0 0 0 0 0 0 0 0 0 0 0 0 0 127 0" result="hardAlpha"/>
<feOffset dy="4"/>
<feGaussianBlur stdDeviation="2"/>
<feComposite in2="hardAlpha" operator="arithmetic" k2="-1" k3="1"/>
<feColorMatrix type="matrix" values="0 0 0 0 0 0 0 0 0 0 0 0 0 0 0 0 0 0 0.25 0"/>
<feBlend mode="normal" in2="shape" result="effect2_innerShadow_2466_2122"/>
</filter>
<filter id="filter8_d_2466_2122" x="981.877" y="255" width="251.246" height="247.553" filterUnits="userSpaceOnUse" color-interpolation-filters="sRGB">
<feFlood flood-opacity="0" result="BackgroundImageFix"/>
<feColorMatrix in="SourceAlpha" type="matrix" values="0 0 0 0 0 0 0 0 0 0 0 0 0 0 0 0 0 0 127 0" result="hardAlpha"/>
<feOffset dy="4"/>
<feGaussianBlur stdDeviation="2"/>
<feComposite in2="hardAlpha" operator="out"/>
<feColorMatrix type="matrix" values="0 0 0 0 1 0 0 0 0 1 0 0 0 0 1 0 0 0 0.25 0"/>
<feBlend mode="normal" in2="BackgroundImageFix" result="effect1_dropShadow_2466_2122"/>
<feBlend mode="normal" in="SourceGraphic" in2="effect1_dropShadow_2466_2122" result="shape"/>
</filter>
<filter id="filter9_d_2466_2122" x="671.099" y="92" width="68.8029" height="68.4376" filterUnits="userSpaceOnUse" color-interpolation-filters="sRGB">
<feFlood flood-opacity="0" result="BackgroundImageFix"/>
<feColorMatrix in="SourceAlpha" type="matrix" values="0 0 0 0 0 0 0 0 0 0 0 0 0 0 0 0 0 0 127 0" result="hardAlpha"/>
<feOffset dy="1.08502"/>
<feGaussianBlur stdDeviation="0.54251"/>
<feComposite in2="hardAlpha" operator="out"/>
<feColorMatrix type="matrix" values="0 0 0 0 1 0 0 0 0 1 0 0 0 0 1 0 0 0 0.25 0"/>
<feBlend mode="normal" in2="BackgroundImageFix" result="effect1_dropShadow_2466_2122"/>
<feBlend mode="normal" in="SourceGraphic" in2="effect1_dropShadow_2466_2122" result="shape"/>
</filter>
<filter id="filter10_d_2466_2122" x="518.099" y="393" width="68.8029" height="68.4376" filterUnits="userSpaceOnUse" color-interpolation-filters="sRGB">
<feFlood flood-opacity="0" result="BackgroundImageFix"/>
<feColorMatrix in="SourceAlpha" type="matrix" values="0 0 0 0 0 0 0 0 0 0 0 0 0 0 0 0 0 0 127 0" result="hardAlpha"/>
<feOffset dy="1.08502"/>
<feGaussianBlur stdDeviation="0.54251"/>
<feComposite in2="hardAlpha" operator="out"/>
<feColorMatrix type="matrix" values="0 0 0 0 1 0 0 0 0 1 0 0 0 0 1 0 0 0 0.25 0"/>
<feBlend mode="normal" in2="BackgroundImageFix" result="effect1_dropShadow_2466_2122"/>
<feBlend mode="normal" in="SourceGraphic" in2="effect1_dropShadow_2466_2122" result="shape"/>
</filter>
<filter id="filter11_d_2466_2122" x="1314" y="-217" width="506" height="506" filterUnits="userSpaceOnUse" color-interpolation-filters="sRGB">
<feFlood flood-opacity="0" result="BackgroundImageFix"/>
<feColorMatrix in="SourceAlpha" type="matrix" values="0 0 0 0 0 0 0 0 0 0 0 0 0 0 0 0 0 0 127 0" result="hardAlpha"/>
<feOffset dy="4"/>
<feGaussianBlur stdDeviation="2"/>
<feComposite in2="hardAlpha" operator="out"/>
<feColorMatrix type="matrix" values="0 0 0 0 0 0 0 0 0 0 0 0 0 0 0 0 0 0 0.25 0"/>
<feBlend mode="normal" in2="BackgroundImageFix" result="effect1_dropShadow_2466_2122"/>
<feBlend mode="normal" in="SourceGraphic" in2="effect1_dropShadow_2466_2122" result="shape"/>
</filter>
<filter id="filter12_d_2466_2122" x="1299" y="-220" width="506" height="506" filterUnits="userSpaceOnUse" color-interpolation-filters="sRGB">
<feFlood flood-opacity="0" result="BackgroundImageFix"/>
<feColorMatrix in="SourceAlpha" type="matrix" values="0 0 0 0 0 0 0 0 0 0 0 0 0 0 0 0 0 0 127 0" result="hardAlpha"/>
<feOffset dy="4"/>
<feGaussianBlur stdDeviation="2"/>
<feComposite in2="hardAlpha" operator="out"/>
<feColorMatrix type="matrix" values="0 0 0 0 0 0 0 0 0 0 0 0 0 0 0 0 0 0 0.25 0"/>
<feBlend mode="normal" in2="BackgroundImageFix" result="effect1_dropShadow_2466_2122"/>
<feBlend mode="normal" in="SourceGraphic" in2="effect1_dropShadow_2466_2122" result="shape"/>
</filter>
<filter id="filter13_dddddf_2466_2122" x="1300.89" y="-42.2" width="427.738" height="312.585" filterUnits="userSpaceOnUse" color-interpolation-filters="sRGB">
<feFlood flood-opacity="0" result="BackgroundImageFix"/>
<feColorMatrix in="SourceAlpha" type="matrix" values="0 0 0 0 0 0 0 0 0 0 0 0 0 0 0 0 0 0 127 0" result="hardAlpha"/>
<feOffset dy="4"/>
<feGaussianBlur stdDeviation="2"/>
<feComposite in2="hardAlpha" operator="out"/>
<feColorMatrix type="matrix" values="0 0 0 0 0.470588 0 0 0 0 0.231373 0 0 0 0 1 0 0 0 1 0"/>
<feBlend mode="normal" in2="BackgroundImageFix" result="effect1_dropShadow_2466_2122"/>
<feColorMatrix in="SourceAlpha" type="matrix" values="0 0 0 0 0 0 0 0 0 0 0 0 0 0 0 0 0 0 127 0" result="hardAlpha"/>
<feOffset dy="4"/>
<feGaussianBlur stdDeviation="2"/>
<feComposite in2="hardAlpha" operator="out"/>
<feColorMatrix type="matrix" values="0 0 0 0 0 0 0 0 0 0 0 0 0 0 0 0 0 0 0.25 0"/>
<feBlend mode="normal" in2="effect1_dropShadow_2466_2122" result="effect2_dropShadow_2466_2122"/>
<feColorMatrix in="SourceAlpha" type="matrix" values="0 0 0 0 0 0 0 0 0 0 0 0 0 0 0 0 0 0 127 0" result="hardAlpha"/>
<feOffset dy="4"/>
<feGaussianBlur stdDeviation="2"/>
<feComposite in2="hardAlpha" operator="out"/>
<feColorMatrix type="matrix" values="0 0 0 0 0 0 0 0 0 0 0 0 0 0 0 0 0 0 0.25 0"/>
<feBlend mode="normal" in2="effect2_dropShadow_2466_2122" result="effect3_dropShadow_2466_2122"/>
<feColorMatrix in="SourceAlpha" type="matrix" values="0 0 0 0 0 0 0 0 0 0 0 0 0 0 0 0 0 0 127 0" result="hardAlpha"/>
<feOffset dy="4"/>
<feGaussianBlur stdDeviation="2"/>
<feComposite in2="hardAlpha" operator="out"/>
<feColorMatrix type="matrix" values="0 0 0 0 0 0 0 0 0 0 0 0 0 0 0 0 0 0 0.25 0"/>
<feBlend mode="normal" in2="effect3_dropShadow_2466_2122" result="effect4_dropShadow_2466_2122"/>
<feColorMatrix in="SourceAlpha" type="matrix" values="0 0 0 0 0 0 0 0 0 0 0 0 0 0 0 0 0 0 127 0" result="hardAlpha"/>
<feOffset dy="4"/>
<feGaussianBlur stdDeviation="2"/>
<feComposite in2="hardAlpha" operator="out"/>
<feColorMatrix type="matrix" values="0 0 0 0 0 0 0 0 0 0 0 0 0 0 0 0 0 0 0.25 0"/>
<feBlend mode="normal" in2="effect4_dropShadow_2466_2122" result="effect5_dropShadow_2466_2122"/>
<feBlend mode="normal" in="SourceGraphic" in2="effect5_dropShadow_2466_2122" result="shape"/>
<feGaussianBlur stdDeviation="1.85" result="effect6_foregroundBlur_2466_2122"/>
</filter>
<filter id="filter14_d_2466_2122" x="-27.305" y="456.313" width="855.565" height="228.28" filterUnits="userSpaceOnUse" color-interpolation-filters="sRGB">
<feFlood flood-opacity="0" result="BackgroundImageFix"/>
<feColorMatrix in="SourceAlpha" type="matrix" values="0 0 0 0 0 0 0 0 0 0 0 0 0 0 0 0 0 0 127 0" result="hardAlpha"/>
<feOffset dy="2.39376"/>
<feGaussianBlur stdDeviation="3.23158"/>
<feComposite in2="hardAlpha" operator="out"/>
<feColorMatrix type="matrix" values="0 0 0 0 0.613846 0 0 0 0 0.519211 0 0 0 0 0.519211 0 0 0 0.25 0"/>
<feBlend mode="normal" in2="BackgroundImageFix" result="effect1_dropShadow_2466_2122"/>
<feBlend mode="normal" in="SourceGraphic" in2="effect1_dropShadow_2466_2122" result="shape"/>
</filter>
<filter id="filter15_d_2466_2122" x="1026.58" y="36.2793" width="183.057" height="117.676" filterUnits="userSpaceOnUse" color-interpolation-filters="sRGB">
<feFlood flood-opacity="0" result="BackgroundImageFix"/>
<feColorMatrix in="SourceAlpha" type="matrix" values="0 0 0 0 0 0 0 0 0 0 0 0 0 0 0 0 0 0 127 0" result="hardAlpha"/>
<feOffset dy="4"/>
<feGaussianBlur stdDeviation="2"/>
<feComposite in2="hardAlpha" operator="out"/>
<feColorMatrix type="matrix" values="0 0 0 0 0 0 0 0 0 0 0 0 0 0 0 0 0 0 0.25 0"/>
<feBlend mode="normal" in2="BackgroundImageFix" result="effect1_dropShadow_2466_2122"/>
<feBlend mode="normal" in="SourceGraphic" in2="effect1_dropShadow_2466_2122" result="shape"/>
</filter>
<filter id="filter16_d_2466_2122" x="1485.65" y="187.791" width="498.701" height="320.587" filterUnits="userSpaceOnUse" color-interpolation-filters="sRGB">
<feFlood flood-opacity="0" result="BackgroundImageFix"/>
<feColorMatrix in="SourceAlpha" type="matrix" values="0 0 0 0 0 0 0 0 0 0 0 0 0 0 0 0 0 0 127 0" result="hardAlpha"/>
<feOffset dy="10.8972"/>
<feGaussianBlur stdDeviation="5.44861"/>
<feComposite in2="hardAlpha" operator="out"/>
<feColorMatrix type="matrix" values="0 0 0 0 0 0 0 0 0 0 0 0 0 0 0 0 0 0 0.25 0"/>
<feBlend mode="normal" in2="BackgroundImageFix" result="effect1_dropShadow_2466_2122"/>
<feBlend mode="normal" in="SourceGraphic" in2="effect1_dropShadow_2466_2122" result="shape"/>
</filter>
<linearGradient id="paint0_linear_2466_2122" x1="-368.5" y1="318.5" x2="1896" y2="318.5" gradientUnits="userSpaceOnUse">
<stop stop-color="#4E26A7"/>
<stop offset="1" stop-color="#2D116B"/>
</linearGradient>
<linearGradient id="paint1_linear_2466_2122" x1="-368.5" y1="318.5" x2="1896" y2="318.5" gradientUnits="userSpaceOnUse">
<stop stop-color="#4E26A7"/>
<stop offset="1" stop-color="#2D116B"/>
</linearGradient>
<linearGradient id="paint2_linear_2466_2122" x1="-252" y1="101.5" x2="488.5" y2="389.5" gradientUnits="userSpaceOnUse">
<stop stop-color="#4C25A1"/>
<stop offset="0.8" stop-color="#4C25A1"/>
<stop offset="1" stop-color="#1C0E3B"/>
</linearGradient>
<linearGradient id="paint3_linear_2466_2122" x1="1172" y1="132" x2="2115.32" y2="535.493" gradientUnits="userSpaceOnUse">
<stop stop-color="#280F5E"/>
<stop offset="0.4599" stop-color="#4C25A1"/>
<stop offset="0.46" stop-color="#4C25A1"/>
<stop offset="1" stop-color="#3B0E39" stop-opacity="0.57"/>
</linearGradient>
<clipPath id="clip0_2466_2122">
<rect width="1896" height="698" fill="white"/>
</clipPath>
</defs>
</svg>
