<?xml version="1.0" encoding="UTF-8"?>
<svg width="24px" height="24px" viewBox="0 0 24 24" version="1.1" xmlns="http://www.w3.org/2000/svg" xmlns:xlink="http://www.w3.org/1999/xlink">
    <!-- Generator: Sketch 54.1 (76490) - https://sketchapp.com -->
    <title>icon/product/shared-hosting@2x</title>
    <desc>Created with Sketch.</desc>
    <defs>
        <path d="M20.672,4.4 C22.5074286,4.4 24,6.01541199 24,7.99914286 C24,9.98410969 22.5074286,11.5982857 20.672,11.5982857 L3.328,11.5982857 C1.49257143,11.5982857 0,9.98410969 0,7.99914286 C0,6.01541199 1.49257143,4.4 3.328,4.4 L20.672,4.4 Z M3.328,12.8 L20.672,12.8 C22.5074286,12.8 24,14.4157967 24,16.4 C24,18.3854396 22.5074286,20 20.672,20 L3.328,20 C1.49257143,20 0,18.3854396 0,16.4 C0,14.4157967 1.49257143,12.8 3.328,12.8 Z M19.2,18 C20.0838095,18 20.8,17.2838095 20.8,16.4 C20.8,15.5161905 20.0838095,14.8 19.2,14.8 C18.3161905,14.8 17.6,15.5161905 17.6,16.4 C17.6,17.2838095 18.3161905,18 19.2,18 Z M19.2,9.6 C20.0838095,9.6 20.8,8.88380952 20.8,8 C20.8,7.11619048 20.0838095,6.4 19.2,6.4 C18.3161905,6.4 17.6,7.11619048 17.6,8 C17.6,8.88380952 18.3161905,9.6 19.2,9.6 Z M14.4,18 C15.2828243,18 16,17.2838095 16,16.4 C16,15.5161905 15.2828243,14.8 14.4,14.8 C13.5171757,14.8 12.8,15.5161905 12.8,16.4 C12.8,17.2838095 13.5171757,18 14.4,18 Z M14.4,9.6 C15.2828243,9.6 16,8.88380952 16,8 C16,7.11619048 15.2828243,6.4 14.4,6.4 C13.5171757,6.4 12.8,7.11619048 12.8,8 C12.8,8.88380952 13.5171757,9.6 14.4,9.6 Z M9.6,18 C10.4838095,18 11.2,17.2838095 11.2,16.4 C11.2,15.5161905 10.4838095,14.8 9.6,14.8 C8.71619048,14.8 8,15.5161905 8,16.4 C8,17.2838095 8.71619048,18 9.6,18 Z M4.8,18 C5.68380952,18 6.4,17.2838095 6.4,16.4 C6.4,15.5161905 5.68380952,14.8 4.8,14.8 C3.91619048,14.8 3.2,15.5161905 3.2,16.4 C3.2,17.2838095 3.91619048,18 4.8,18 Z" id="path-1"></path>
    </defs>
    <g id="icon/product/shared-hosting" stroke="none" stroke-width="1" fill="none" fill-rule="evenodd">
        <g id="art/icon/product/shared-hosting">
            <mask id="mask-2" fill="white">
                <use xlink:href="#path-1"></use>
            </mask>
            <use id="Mask" fill="#000000" fill-rule="evenodd" xlink:href="#path-1"></use>
            <g id="mixin/color/primary/gray-base" mask="url(#mask-2)" fill="#6D6E70" fill-rule="evenodd">
                <rect id="gray-base" x="0" y="0" width="24" height="24"></rect>
            </g>
        </g>
    </g>
</svg>
